<?xml version="1.0" encoding="UTF-8" standalone="no"?>
<!-- Created with Inkscape (http://www.inkscape.org/) -->

<svg
   width="200mm"
   height="200mm"
   viewBox="0 0 200 200"
   version="1.1"
   id="svg5"
   inkscape:version="1.1.1 (3bf5ae0d25, 2021-09-20)"
   sodipodi:docname="beam-splitter-blue.svg"
   xmlns:inkscape="http://www.inkscape.org/namespaces/inkscape"
   xmlns:sodipodi="http://sodipodi.sourceforge.net/DTD/sodipodi-0.dtd"
   xmlns="http://www.w3.org/2000/svg"
   xmlns:svg="http://www.w3.org/2000/svg">
  <sodipodi:namedview
     id="namedview7"
     pagecolor="#ffffff"
     bordercolor="#666666"
     borderopacity="1.0"
     inkscape:pageshadow="2"
     inkscape:pageopacity="0.0"
     inkscape:pagecheckerboard="0"
     inkscape:document-units="mm"
     showgrid="false"
     width="209mm"
     inkscape:zoom="1.5554293"
     inkscape:cx="526.22128"
     inkscape:cy="563.51002"
     inkscape:window-width="2560"
     inkscape:window-height="1377"
     inkscape:window-x="-8"
     inkscape:window-y="-8"
     inkscape:window-maximized="1"
     inkscape:current-layer="layer1" />
  <defs
     id="defs2" />
  <g
     inkscape:label="Warstwa 1"
     inkscape:groupmode="layer"
     id="layer1">
    <g
       inkscape:label="Warstwa 1"
       id="layer1-0"
       transform="translate(0.62995949,-0.43602407)">
      <path
         id="rect277"
         style="fill:#999999;fill-rule:evenodd;stroke-width:5.39743"
         d="m 377,447.20898 v -68.1914 L 0.4609375,755.42773 H 68.78125 Z"
         transform="scale(0.26458333)" />
      <path
         id="rect277-0"
         style="fill:#999999;fill-rule:evenodd;stroke-width:1.42807"
         d="m 181.29745,199.87357 h 18.04232 l -99.591853,-99.62595 -2e-6,18.07642 z" />
      <path
         style="fill:#ff0000;stroke:#000000;stroke-width:0.264583px;stroke-linecap:butt;stroke-linejoin:miter;stroke-opacity:1"
         d="m 18.198372,199.87358 81.549543,-81.54954 81.549535,81.54953 z"
         id="path7342" />
    </g>
    <path
       style="fill:#0000ff;stroke-width:0.642909"
       d="m 226.30408,599.8344 153.01141,-153.01242 152.8522,152.85118 c 84.06871,84.06816 152.85219,152.92375 152.85219,153.01242 0,0.0887 -137.63862,0.16124 -305.8636,0.16124 H 73.292676 Z"
       id="path7622"
       transform="scale(0.26458333)" />
    <path
       style="fill:#0000ff;stroke-width:0.227303"
       d="M 226.33734,599.90884 379.25586,446.9909 531.9459,599.73836 l 152.69005,152.74747 -100.92243,0.1369 c -55.50734,0.0753 -193.0312,0.15202 -305.60856,0.17048 l -204.686123,0.0336 z"
       id="path7661"
       transform="scale(0.26458333)" />
    <path
       style="fill:#0000ff;stroke-width:0.227303"
       d=""
       id="path7700"
       transform="scale(0.26458333)" />
    <path
       style="fill:#0000ff;stroke-width:0.227303"
       d="M 226.33673,599.93376 379.25467,446.99094 531.93583,599.6721 c 83.97462,83.97463 152.6214,152.7409 152.54839,152.81393 -0.073,0.073 -137.59262,0.19075 -305.59909,0.26165 l -305.466335,0.1289 z"
       id="path7739"
       transform="scale(0.26458333)" />
    <path
       style="fill:#0000ff;stroke-width:0.227303"
       d=""
       id="path7778"
       transform="scale(0.26458333)" />
  </g>
</svg>
