<?xml version="1.0" encoding="UTF-8" standalone="no"?>
<!-- Created with Inkscape (http://www.inkscape.org/) -->

<svg
   width="200mm"
   height="200mm"
   viewBox="0 0 200 200"
   version="1.1"
   id="svg5"
   inkscape:version="1.1.2 (b8e25be833, 2022-02-05)"
   sodipodi:docname="BEAM_SPLITTER_BLUE.svg"
   xmlns:inkscape="http://www.inkscape.org/namespaces/inkscape"
   xmlns:sodipodi="http://sodipodi.sourceforge.net/DTD/sodipodi-0.dtd"
   xmlns="http://www.w3.org/2000/svg"
   xmlns:svg="http://www.w3.org/2000/svg">
  <sodipodi:namedview
     id="namedview7"
     pagecolor="#ffffff"
     bordercolor="#666666"
     borderopacity="1.0"
     inkscape:pageshadow="2"
     inkscape:pageopacity="0.0"
     inkscape:pagecheckerboard="0"
     inkscape:document-units="mm"
     showgrid="false"
     width="209mm"
     inkscape:zoom="0.77771465"
     inkscape:cx="621.69332"
     inkscape:cy="335.59867"
     inkscape:window-width="2560"
     inkscape:window-height="1377"
     inkscape:window-x="-8"
     inkscape:window-y="-8"
     inkscape:window-maximized="1"
     inkscape:current-layer="layer1" />
  <defs
     id="defs2" />
  <g
     inkscape:label="Warstwa 1"
     inkscape:groupmode="layer"
     id="layer1">
    <g
       inkscape:label="Warstwa 1"
       id="layer1-0"
       transform="rotate(180,99.865432,100.00294)">
      <path
         id="rect277"
         style="fill:#999999;fill-rule:evenodd;stroke-width:5.39743"
         d="m 377,447.20898 v -68.1914 L 0.4609375,755.42773 H 68.78125 Z"
         transform="scale(0.26458333)" />
      <path
         id="rect277-0"
         style="fill:#999999;fill-rule:evenodd;stroke-width:1.42807"
         d="m 181.29745,199.87357 h 18.04232 l -99.591853,-99.62595 -2e-6,18.07642 z" />
      <path
         style="fill:#ff0000;stroke:#000000;stroke-width:0.264583px;stroke-linecap:butt;stroke-linejoin:miter;stroke-opacity:1"
         d="m 18.198372,199.87358 81.549543,-81.54954 81.549535,81.54953 z"
         id="path7342" />
    </g>
    <path
       style="fill:#0000ff;stroke-width:0.170103"
       d="M 140.44215,40.484625 99.957848,80.969145 59.515745,40.527265 C 37.272555,18.28422 19.073602,0.06616 19.073603,0.0427 19.073562,0.0192 55.490502,0 100.00003,0 l 80.92637,3e-5 z"
       id="path7622" />
    <path
       style="fill:#0000ff;stroke-width:0.0601406"
       d="M 140.39928,40.459665 99.939579,80.919205 59.540308,40.504805 19.14104,0.0904 45.843448,0.0542 C 60.529812,0.0342 96.916342,0.0139 126.70245,0.009 L 180.85896,0 Z"
       id="path7661" />
    <path
       style="fill:#0000ff;stroke-width:0.0601406"
       d=""
       id="path7700" />
    <path
       style="fill:#ffffff;stroke-width:0.0601406"
       d="M 140.37922,40.46615 99.919919,80.93252 59.523023,40.53563 C 37.304757,18.31733 19.141973,0.12291 19.161276,0.1036 19.180456,0.0843 55.565997,0.0531 100.01772,0.0344 L 180.83874,0 Z"
       id="path7739" />
    <path
       style="fill:#0000ff;stroke-width:0.0601406"
       d=""
       id="path7778" />
  </g>
</svg>
